<svg xmlns="http://www.w3.org/2000/svg" xmlns:xlink="http://www.w3.org/1999/xlink" width="226" zoomAndPan="magnify" viewBox="0 0 169.5 77.249999" height="103" preserveAspectRatio="xMidYMid meet" version="1.2"><defs><clipPath id="001f4993a2"><path d="M 0.566406 0 L 168.4375 0 L 168.4375 76.507812 L 0.566406 76.507812 Z M 0.566406 0 "/></clipPath><clipPath id="cf28868f62"><path d="M 0.566406 0 L 76.925781 0 L 76.925781 76.359375 L 0.566406 76.359375 Z M 0.566406 0 "/></clipPath><clipPath id="c09af92888"><path d="M 38.746094 0 C 17.660156 0 0.566406 17.09375 0.566406 38.179688 C 0.566406 59.265625 17.660156 76.359375 38.746094 76.359375 C 59.832031 76.359375 76.925781 59.265625 76.925781 38.179688 C 76.925781 17.09375 59.832031 0 38.746094 0 Z M 38.746094 0 "/></clipPath><clipPath id="d100666729"><path d="M 4.015625 0 L 43 0 L 43 69 L 4.015625 69 Z M 4.015625 0 "/></clipPath><clipPath id="1ff4cbc352"><path d="M 28 47 L 46 47 L 46 76.128906 L 28 76.128906 Z M 28 47 "/></clipPath></defs><g id="38d84e1650"><g clip-rule="nonzero" clip-path="url(#001f4993a2)"><path style=" stroke:none;fill-rule:nonzero;fill:#ffffff;fill-opacity:1;" d="M 0.566406 0 L 168.4375 0 L 168.4375 76.507812 L 0.566406 76.507812 Z M 0.566406 0 "/></g><g clip-rule="nonzero" clip-path="url(#cf28868f62)"><g clip-rule="nonzero" clip-path="url(#c09af92888)"><path style=" stroke:none;fill-rule:nonzero;fill:#ffffff;fill-opacity:1;" d="M 0.566406 0 L 76.925781 0 L 76.925781 76.359375 L 0.566406 76.359375 Z M 0.566406 0 "/></g></g><g clip-rule="nonzero" clip-path="url(#d100666729)"><path style=" stroke:none;fill-rule:nonzero;fill:#5c6cfc;fill-opacity:1;" d="M 31.902344 37.460938 L 35.433594 30.601562 C 35.683594 30.117188 35.675781 29.566406 35.464844 29.105469 L 41.84375 16.710938 L 41.878906 16.636719 C 43.125 13.667969 43.332031 10.40625 42.464844 7.449219 C 41.972656 5.773438 41.1875 4.332031 40.125 3.167969 C 39.007812 1.941406 37.382812 1.226562 35.671875 1.203125 C 35.105469 1.195312 34.214844 1.1875 33.515625 1.191406 L 31.710938 0.253906 C 31.4375 0.113281 31.148438 0.0429688 30.84375 0.0429688 C 29.808594 0.0429688 28.964844 0.882812 28.964844 1.921875 L 28.964844 2.5625 C 28.964844 3.597656 29.808594 4.441406 30.847656 4.441406 C 31.148438 4.441406 31.4375 4.371094 31.710938 4.230469 L 33.511719 3.292969 C 34.035156 3.289062 34.769531 3.292969 35.644531 3.304688 C 36.777344 3.320312 37.84375 3.785156 38.570312 4.582031 C 39.414062 5.511719 40.046875 6.671875 40.449219 8.042969 C 41.175781 10.523438 41.003906 13.273438 39.957031 15.785156 L 33.59375 28.144531 C 33.097656 28.242188 32.644531 28.554688 32.394531 29.039062 L 28.863281 35.898438 C 28.402344 36.804688 27.519531 37.339844 26.503906 37.34375 C 26.503906 37.34375 26.503906 37.34375 26.5 37.34375 C 25.484375 37.34375 24.601562 36.804688 24.136719 35.898438 L 20.605469 29.039062 C 20.355469 28.554688 19.90625 28.242188 19.410156 28.144531 L 13.046875 15.785156 C 12 13.269531 11.824219 10.523438 12.554688 8.039062 C 12.957031 6.671875 13.585938 5.511719 14.429688 4.585938 C 15.160156 3.785156 16.226562 3.320312 17.355469 3.304688 C 18.230469 3.292969 18.964844 3.289062 19.492188 3.292969 L 21.292969 4.230469 C 21.566406 4.371094 21.855469 4.441406 22.15625 4.441406 C 22.640625 4.441406 23.113281 4.25 23.464844 3.914062 C 23.832031 3.558594 24.035156 3.078125 24.035156 2.5625 L 24.035156 1.921875 C 24.035156 0.882812 23.195312 0.0429688 22.15625 0.0429688 C 21.855469 0.0429688 21.566406 0.113281 21.292969 0.253906 L 19.488281 1.191406 C 18.789062 1.1875 17.898438 1.195312 17.328125 1.203125 C 15.621094 1.226562 13.996094 1.941406 12.878906 3.167969 C 11.816406 4.332031 11.03125 5.773438 10.539062 7.449219 C 9.667969 10.40625 9.878906 13.667969 11.125 16.636719 L 11.140625 16.671875 L 17.539062 29.105469 C 17.324219 29.566406 17.316406 30.117188 17.570312 30.601562 L 21.097656 37.460938 C 21.917969 39.050781 23.359375 40.164062 25.042969 40.578125 L 25.042969 55.953125 C 25.042969 61.535156 20.5 66.078125 14.917969 66.078125 C 10.5 66.078125 6.90625 62.484375 6.90625 58.0625 C 6.90625 53.644531 10.5 50.050781 14.917969 50.050781 L 23.992188 50.050781 L 23.992188 47.160156 L 14.917969 47.160156 C 8.90625 47.160156 4.015625 52.054688 4.015625 58.0625 C 4.015625 64.074219 8.90625 68.964844 14.917969 68.964844 C 22.09375 68.964844 27.933594 63.128906 27.933594 55.953125 L 27.933594 40.585938 C 29.625 40.179688 31.082031 39.058594 31.902344 37.460938 "/></g><g clip-rule="nonzero" clip-path="url(#1ff4cbc352)"><path style=" stroke:none;fill-rule:nonzero;fill:#5c6cfc;fill-opacity:1;" d="M 43.058594 69.6875 C 43.058594 71.914062 41.246094 73.722656 39.023438 73.722656 C 36.796875 73.722656 34.988281 71.914062 34.988281 69.6875 C 34.988281 67.464844 36.796875 65.652344 39.023438 65.652344 C 39.59375 65.652344 40.132812 65.773438 40.625 65.988281 C 40.445312 66.203125 40.253906 66.410156 40.054688 66.613281 L 39.789062 66.878906 C 39.542969 66.8125 39.289062 66.773438 39.023438 66.773438 C 37.410156 66.773438 36.105469 68.078125 36.105469 69.6875 C 36.105469 71.300781 37.410156 72.605469 39.023438 72.605469 C 40.632812 72.605469 41.9375 71.300781 41.9375 69.6875 C 41.9375 69.421875 41.898438 69.167969 41.832031 68.921875 L 42.097656 68.65625 C 42.304688 68.449219 42.5 68.234375 42.691406 68.015625 C 42.925781 68.527344 43.058594 69.09375 43.058594 69.6875 Z M 45.785156 59.753906 C 45.785156 52.808594 40.136719 47.160156 33.195312 47.160156 L 28.984375 47.160156 L 28.984375 50.050781 L 33.195312 50.050781 C 38.546875 50.050781 42.898438 54.402344 42.898438 59.753906 C 42.898438 61.246094 42.5625 62.683594 41.925781 63.988281 C 41.054688 63.542969 40.066406 63.289062 39.023438 63.289062 C 35.492188 63.289062 32.621094 66.160156 32.621094 69.6875 C 32.621094 73.21875 35.492188 76.089844 39.023438 76.089844 C 42.550781 76.089844 45.421875 73.21875 45.421875 69.6875 C 45.421875 68.273438 44.960938 66.96875 44.183594 65.90625 C 45.226562 64.046875 45.785156 61.945312 45.785156 59.753906 "/></g><g style="fill:#040c6c;fill-opacity:1;"><g transform="translate(39.342181, 42.163958)"><path style="stroke:none" d="M 14.734375 -13.234375 L 14.734375 0 L 12.234375 0 L 12.234375 -6.0625 L 8.09375 -0.171875 L 8.046875 -0.171875 L 4.0625 -5.6875 L 4.0625 0 L 1.640625 0 L 1.640625 -13.234375 L 1.65625 -13.234375 L 8.109375 -4.09375 L 14.703125 -13.234375 Z M 14.734375 -13.234375 "/></g></g><g style="fill:#040c6c;fill-opacity:1;"><g transform="translate(57.923943, 42.163958)"><path style="stroke:none" d="M 10.3125 -12.71875 L 10.3125 -10.296875 L 4.140625 -10.296875 L 4.140625 -7.59375 L 9.609375 -7.59375 L 9.609375 -5.171875 L 4.140625 -5.171875 L 4.140625 -2.421875 L 10.5625 -2.421875 L 10.5625 0 L 1.640625 0 L 1.640625 -12.71875 Z M 10.3125 -12.71875 "/></g></g><g style="fill:#040c6c;fill-opacity:1;"><g transform="translate(71.635944, 42.163958)"><path style="stroke:none" d="M 1.640625 -12.71875 L 5.4375 -12.71875 C 7.0625 -12.71875 8.398438 -12.398438 9.453125 -11.765625 C 10.503906 -11.140625 11.265625 -10.328125 11.734375 -9.328125 C 12.210938 -8.335938 12.453125 -7.273438 12.453125 -6.140625 C 12.453125 -4.910156 12.164062 -3.828125 11.59375 -2.890625 C 11.019531 -1.960938 10.242188 -1.25 9.265625 -0.75 C 8.296875 -0.25 7.226562 0 6.0625 0 L 1.640625 0 Z M 5.640625 -2.421875 C 6.941406 -2.421875 7.972656 -2.753906 8.734375 -3.421875 C 9.492188 -4.085938 9.875 -5.050781 9.875 -6.3125 C 9.875 -7.320312 9.660156 -8.125 9.234375 -8.71875 C 8.816406 -9.320312 8.328125 -9.738281 7.765625 -9.96875 C 7.210938 -10.195312 6.6875 -10.3125 6.1875 -10.3125 L 4.140625 -10.3125 L 4.140625 -2.421875 Z M 5.640625 -2.421875 "/></g></g><g style="fill:#040c6c;fill-opacity:1;"><g transform="translate(87.161156, 42.163958)"><path style="stroke:none" d="M 4.140625 -12.71875 L 4.140625 0 L 1.640625 0 L 1.640625 -12.71875 Z M 4.140625 -12.71875 "/></g></g><g style="fill:#040c6c;fill-opacity:1;"><g transform="translate(95.157229, 42.163958)"><path style="stroke:none" d="M 14.734375 -13.234375 L 14.734375 0 L 12.234375 0 L 12.234375 -6.0625 L 8.09375 -0.171875 L 8.046875 -0.171875 L 4.0625 -5.6875 L 4.0625 0 L 1.640625 0 L 1.640625 -13.234375 L 1.65625 -13.234375 L 8.109375 -4.09375 L 14.703125 -13.234375 Z M 14.734375 -13.234375 "/></g></g><g style="fill:#040c6c;fill-opacity:1;"><g transform="translate(113.738991, 42.163958)"><path style="stroke:none" d="M 10.3125 -12.71875 L 10.3125 -10.296875 L 4.140625 -10.296875 L 4.140625 -7.59375 L 9.609375 -7.59375 L 9.609375 -5.171875 L 4.140625 -5.171875 L 4.140625 -2.421875 L 10.5625 -2.421875 L 10.5625 0 L 1.640625 0 L 1.640625 -12.71875 Z M 10.3125 -12.71875 "/></g></g><g style="fill:#040c6c;fill-opacity:1;"><g transform="translate(127.450986, 42.163958)"><path style="stroke:none" d="M 10.3125 -12.71875 L 10.3125 -10.296875 L 4.140625 -10.296875 L 4.140625 -7.59375 L 9.609375 -7.59375 L 9.609375 -5.171875 L 4.140625 -5.171875 L 4.140625 -2.421875 L 10.5625 -2.421875 L 10.5625 0 L 1.640625 0 L 1.640625 -12.71875 Z M 10.3125 -12.71875 "/></g></g><g style="fill:#040c6c;fill-opacity:1;"><g transform="translate(141.162996, 42.163958)"><path style="stroke:none" d="M 9.34375 -12.71875 L 9.34375 -10.296875 L 6.25 -10.296875 L 6.25 0 L 3.75 0 L 3.75 -10.296875 L 0.78125 -10.296875 L 0.78125 -12.71875 Z M 9.34375 -12.71875 "/></g></g></g></svg>